<mxfile host="app.diagrams.net" modified="2024-01-09T06:03:40.637Z" agent="Mozilla/5.0 (Windows NT 10.0; Win64; x64) AppleWebKit/537.36 (KHTML, like Gecko) Chrome/120.0.0.0 Safari/537.36" etag="3p4B87mWhWUO7RC1fHyc" version="22.1.17" type="github">
  <diagram id="C5RBs43oDa-KdzZeNtuy" name="Page-1">
    <mxGraphModel dx="710" dy="848" grid="1" gridSize="10" guides="1" tooltips="1" connect="1" arrows="1" fold="1" page="1" pageScale="1" pageWidth="827" pageHeight="1169" math="0" shadow="0">
      <root>
        <mxCell id="WIyWlLk6GJQsqaUBKTNV-0" />
        <mxCell id="WIyWlLk6GJQsqaUBKTNV-1" parent="WIyWlLk6GJQsqaUBKTNV-0" />
        <mxCell id="f-r_1P2mJ3X0I3FfCkkR-2" style="edgeStyle=orthogonalEdgeStyle;rounded=0;orthogonalLoop=1;jettySize=auto;html=1;" edge="1" parent="WIyWlLk6GJQsqaUBKTNV-1" source="f-r_1P2mJ3X0I3FfCkkR-0">
          <mxGeometry relative="1" as="geometry">
            <mxPoint x="240" y="120" as="targetPoint" />
          </mxGeometry>
        </mxCell>
        <mxCell id="f-r_1P2mJ3X0I3FfCkkR-0" value="출석부 서버 실행" style="ellipse;whiteSpace=wrap;html=1;aspect=fixed;" vertex="1" parent="WIyWlLk6GJQsqaUBKTNV-1">
          <mxGeometry x="60" y="65" width="110" height="110" as="geometry" />
        </mxCell>
        <mxCell id="f-r_1P2mJ3X0I3FfCkkR-5" style="edgeStyle=orthogonalEdgeStyle;rounded=0;orthogonalLoop=1;jettySize=auto;html=1;dashed=1;" edge="1" parent="WIyWlLk6GJQsqaUBKTNV-1" source="f-r_1P2mJ3X0I3FfCkkR-4" target="f-r_1P2mJ3X0I3FfCkkR-6">
          <mxGeometry relative="1" as="geometry">
            <mxPoint x="300" y="150" as="targetPoint" />
          </mxGeometry>
        </mxCell>
        <mxCell id="f-r_1P2mJ3X0I3FfCkkR-42" value="비동기 요청" style="edgeLabel;html=1;align=center;verticalAlign=middle;resizable=0;points=[];" vertex="1" connectable="0" parent="f-r_1P2mJ3X0I3FfCkkR-5">
          <mxGeometry x="0.5535" y="-1" relative="1" as="geometry">
            <mxPoint x="-71" as="offset" />
          </mxGeometry>
        </mxCell>
        <mxCell id="f-r_1P2mJ3X0I3FfCkkR-4" value="클라이언트 연결 요청" style="ellipse;whiteSpace=wrap;html=1;aspect=fixed;" vertex="1" parent="WIyWlLk6GJQsqaUBKTNV-1">
          <mxGeometry x="80" y="190" width="70" height="70" as="geometry" />
        </mxCell>
        <mxCell id="f-r_1P2mJ3X0I3FfCkkR-7" value="" style="edgeStyle=orthogonalEdgeStyle;rounded=0;orthogonalLoop=1;jettySize=auto;html=1;" edge="1" parent="WIyWlLk6GJQsqaUBKTNV-1" source="f-r_1P2mJ3X0I3FfCkkR-6" target="f-r_1P2mJ3X0I3FfCkkR-0">
          <mxGeometry relative="1" as="geometry" />
        </mxCell>
        <mxCell id="f-r_1P2mJ3X0I3FfCkkR-9" style="edgeStyle=orthogonalEdgeStyle;rounded=0;orthogonalLoop=1;jettySize=auto;html=1;" edge="1" parent="WIyWlLk6GJQsqaUBKTNV-1" source="f-r_1P2mJ3X0I3FfCkkR-6" target="f-r_1P2mJ3X0I3FfCkkR-8">
          <mxGeometry relative="1" as="geometry" />
        </mxCell>
        <mxCell id="f-r_1P2mJ3X0I3FfCkkR-6" value="클라이언트 연결 대기" style="shape=hexagon;perimeter=hexagonPerimeter2;whiteSpace=wrap;html=1;fixedSize=1;" vertex="1" parent="WIyWlLk6GJQsqaUBKTNV-1">
          <mxGeometry x="240" y="80" width="120" height="80" as="geometry" />
        </mxCell>
        <mxCell id="f-r_1P2mJ3X0I3FfCkkR-8" value="연결 완료" style="rounded=0;whiteSpace=wrap;html=1;" vertex="1" parent="WIyWlLk6GJQsqaUBKTNV-1">
          <mxGeometry x="430" y="90" width="120" height="60" as="geometry" />
        </mxCell>
        <mxCell id="f-r_1P2mJ3X0I3FfCkkR-18" style="edgeStyle=orthogonalEdgeStyle;rounded=0;orthogonalLoop=1;jettySize=auto;html=1;dashed=1;" edge="1" parent="WIyWlLk6GJQsqaUBKTNV-1" source="f-r_1P2mJ3X0I3FfCkkR-10" target="f-r_1P2mJ3X0I3FfCkkR-16">
          <mxGeometry relative="1" as="geometry" />
        </mxCell>
        <mxCell id="f-r_1P2mJ3X0I3FfCkkR-19" value="비동기 전송" style="edgeLabel;html=1;align=center;verticalAlign=middle;resizable=0;points=[];" vertex="1" connectable="0" parent="f-r_1P2mJ3X0I3FfCkkR-18">
          <mxGeometry x="-0.2" y="-3" relative="1" as="geometry">
            <mxPoint x="27" as="offset" />
          </mxGeometry>
        </mxCell>
        <mxCell id="f-r_1P2mJ3X0I3FfCkkR-21" style="edgeStyle=orthogonalEdgeStyle;rounded=0;orthogonalLoop=1;jettySize=auto;html=1;" edge="1" parent="WIyWlLk6GJQsqaUBKTNV-1" source="f-r_1P2mJ3X0I3FfCkkR-10" target="f-r_1P2mJ3X0I3FfCkkR-20">
          <mxGeometry relative="1" as="geometry" />
        </mxCell>
        <mxCell id="f-r_1P2mJ3X0I3FfCkkR-10" value="출석번호(폰번호) 전송" style="rounded=0;whiteSpace=wrap;html=1;" vertex="1" parent="WIyWlLk6GJQsqaUBKTNV-1">
          <mxGeometry x="190" y="420" width="100" height="60" as="geometry" />
        </mxCell>
        <mxCell id="f-r_1P2mJ3X0I3FfCkkR-17" style="edgeStyle=orthogonalEdgeStyle;rounded=0;orthogonalLoop=1;jettySize=auto;html=1;" edge="1" parent="WIyWlLk6GJQsqaUBKTNV-1" source="f-r_1P2mJ3X0I3FfCkkR-11" target="f-r_1P2mJ3X0I3FfCkkR-16">
          <mxGeometry relative="1" as="geometry" />
        </mxCell>
        <mxCell id="f-r_1P2mJ3X0I3FfCkkR-11" value="서버" style="ellipse;whiteSpace=wrap;html=1;aspect=fixed;" vertex="1" parent="WIyWlLk6GJQsqaUBKTNV-1">
          <mxGeometry x="70" y="280" width="80" height="80" as="geometry" />
        </mxCell>
        <mxCell id="f-r_1P2mJ3X0I3FfCkkR-13" style="edgeStyle=orthogonalEdgeStyle;rounded=0;orthogonalLoop=1;jettySize=auto;html=1;" edge="1" parent="WIyWlLk6GJQsqaUBKTNV-1" source="f-r_1P2mJ3X0I3FfCkkR-12" target="f-r_1P2mJ3X0I3FfCkkR-10">
          <mxGeometry relative="1" as="geometry" />
        </mxCell>
        <mxCell id="f-r_1P2mJ3X0I3FfCkkR-12" value="클라이언트" style="ellipse;whiteSpace=wrap;html=1;aspect=fixed;" vertex="1" parent="WIyWlLk6GJQsqaUBKTNV-1">
          <mxGeometry x="70" y="410" width="80" height="80" as="geometry" />
        </mxCell>
        <mxCell id="f-r_1P2mJ3X0I3FfCkkR-23" style="edgeStyle=orthogonalEdgeStyle;rounded=0;orthogonalLoop=1;jettySize=auto;html=1;" edge="1" parent="WIyWlLk6GJQsqaUBKTNV-1" source="f-r_1P2mJ3X0I3FfCkkR-16" target="f-r_1P2mJ3X0I3FfCkkR-38">
          <mxGeometry relative="1" as="geometry">
            <mxPoint x="335" y="320" as="targetPoint" />
          </mxGeometry>
        </mxCell>
        <mxCell id="f-r_1P2mJ3X0I3FfCkkR-16" value="클라이언트 수신&amp;nbsp; 대기" style="shape=hexagon;perimeter=hexagonPerimeter2;whiteSpace=wrap;html=1;fixedSize=1;" vertex="1" parent="WIyWlLk6GJQsqaUBKTNV-1">
          <mxGeometry x="180" y="280" width="120" height="80" as="geometry" />
        </mxCell>
        <mxCell id="f-r_1P2mJ3X0I3FfCkkR-33" style="edgeStyle=orthogonalEdgeStyle;rounded=0;orthogonalLoop=1;jettySize=auto;html=1;" edge="1" parent="WIyWlLk6GJQsqaUBKTNV-1" source="f-r_1P2mJ3X0I3FfCkkR-20" target="f-r_1P2mJ3X0I3FfCkkR-29">
          <mxGeometry relative="1" as="geometry" />
        </mxCell>
        <mxCell id="f-r_1P2mJ3X0I3FfCkkR-20" value="서버 수신 대기" style="shape=hexagon;perimeter=hexagonPerimeter2;whiteSpace=wrap;html=1;fixedSize=1;" vertex="1" parent="WIyWlLk6GJQsqaUBKTNV-1">
          <mxGeometry x="320" y="410" width="120" height="80" as="geometry" />
        </mxCell>
        <mxCell id="f-r_1P2mJ3X0I3FfCkkR-24" style="edgeStyle=orthogonalEdgeStyle;rounded=0;orthogonalLoop=1;jettySize=auto;html=1;dashed=1;" edge="1" parent="WIyWlLk6GJQsqaUBKTNV-1" source="f-r_1P2mJ3X0I3FfCkkR-38" target="f-r_1P2mJ3X0I3FfCkkR-20">
          <mxGeometry relative="1" as="geometry">
            <mxPoint x="380" y="350" as="sourcePoint" />
          </mxGeometry>
        </mxCell>
        <mxCell id="f-r_1P2mJ3X0I3FfCkkR-26" value="존재" style="edgeLabel;html=1;align=center;verticalAlign=middle;resizable=0;points=[];" vertex="1" connectable="0" parent="f-r_1P2mJ3X0I3FfCkkR-24">
          <mxGeometry x="-0.1333" y="4" relative="1" as="geometry">
            <mxPoint x="16" y="-2" as="offset" />
          </mxGeometry>
        </mxCell>
        <mxCell id="f-r_1P2mJ3X0I3FfCkkR-37" style="edgeStyle=orthogonalEdgeStyle;rounded=0;orthogonalLoop=1;jettySize=auto;html=1;" edge="1" parent="WIyWlLk6GJQsqaUBKTNV-1" source="f-r_1P2mJ3X0I3FfCkkR-38" target="f-r_1P2mJ3X0I3FfCkkR-30">
          <mxGeometry relative="1" as="geometry">
            <mxPoint x="425" y="320" as="sourcePoint" />
          </mxGeometry>
        </mxCell>
        <mxCell id="f-r_1P2mJ3X0I3FfCkkR-31" style="edgeStyle=orthogonalEdgeStyle;rounded=0;orthogonalLoop=1;jettySize=auto;html=1;dashed=1;" edge="1" parent="WIyWlLk6GJQsqaUBKTNV-1" source="f-r_1P2mJ3X0I3FfCkkR-29" target="f-r_1P2mJ3X0I3FfCkkR-30">
          <mxGeometry relative="1" as="geometry" />
        </mxCell>
        <mxCell id="f-r_1P2mJ3X0I3FfCkkR-32" value="True&lt;br&gt;유저정보, 시간 데이터 비동기 전송" style="edgeLabel;html=1;align=center;verticalAlign=middle;resizable=0;points=[];" vertex="1" connectable="0" parent="f-r_1P2mJ3X0I3FfCkkR-31">
          <mxGeometry x="-0.36" relative="1" as="geometry">
            <mxPoint y="-4" as="offset" />
          </mxGeometry>
        </mxCell>
        <mxCell id="f-r_1P2mJ3X0I3FfCkkR-34" style="edgeStyle=orthogonalEdgeStyle;rounded=0;orthogonalLoop=1;jettySize=auto;html=1;" edge="1" parent="WIyWlLk6GJQsqaUBKTNV-1" source="f-r_1P2mJ3X0I3FfCkkR-29" target="f-r_1P2mJ3X0I3FfCkkR-10">
          <mxGeometry relative="1" as="geometry">
            <Array as="points">
              <mxPoint x="530" y="530" />
              <mxPoint x="240" y="530" />
            </Array>
          </mxGeometry>
        </mxCell>
        <mxCell id="f-r_1P2mJ3X0I3FfCkkR-35" value="False&lt;br&gt;유저 선택 하지 않음" style="edgeLabel;html=1;align=center;verticalAlign=middle;resizable=0;points=[];" vertex="1" connectable="0" parent="f-r_1P2mJ3X0I3FfCkkR-34">
          <mxGeometry x="-0.3476" y="1" relative="1" as="geometry">
            <mxPoint x="-76" y="19" as="offset" />
          </mxGeometry>
        </mxCell>
        <mxCell id="f-r_1P2mJ3X0I3FfCkkR-29" value="유저 선택" style="rhombus;whiteSpace=wrap;html=1;" vertex="1" parent="WIyWlLk6GJQsqaUBKTNV-1">
          <mxGeometry x="490" y="410" width="80" height="80" as="geometry" />
        </mxCell>
        <mxCell id="f-r_1P2mJ3X0I3FfCkkR-44" style="edgeStyle=orthogonalEdgeStyle;rounded=0;orthogonalLoop=1;jettySize=auto;html=1;" edge="1" parent="WIyWlLk6GJQsqaUBKTNV-1" source="f-r_1P2mJ3X0I3FfCkkR-30" target="f-r_1P2mJ3X0I3FfCkkR-43">
          <mxGeometry relative="1" as="geometry" />
        </mxCell>
        <mxCell id="f-r_1P2mJ3X0I3FfCkkR-45" value="Attendance DB로 데이터 전송" style="edgeLabel;html=1;align=center;verticalAlign=middle;resizable=0;points=[];" vertex="1" connectable="0" parent="f-r_1P2mJ3X0I3FfCkkR-44">
          <mxGeometry x="0.36" relative="1" as="geometry">
            <mxPoint x="80" as="offset" />
          </mxGeometry>
        </mxCell>
        <mxCell id="f-r_1P2mJ3X0I3FfCkkR-30" value="클라이언트 수신&amp;nbsp; 대기" style="shape=hexagon;perimeter=hexagonPerimeter2;whiteSpace=wrap;html=1;fixedSize=1;" vertex="1" parent="WIyWlLk6GJQsqaUBKTNV-1">
          <mxGeometry x="470" y="280" width="120" height="80" as="geometry" />
        </mxCell>
        <mxCell id="f-r_1P2mJ3X0I3FfCkkR-40" style="edgeStyle=orthogonalEdgeStyle;rounded=0;orthogonalLoop=1;jettySize=auto;html=1;exitX=0.5;exitY=0;exitDx=0;exitDy=0;" edge="1" parent="WIyWlLk6GJQsqaUBKTNV-1" source="f-r_1P2mJ3X0I3FfCkkR-38" target="f-r_1P2mJ3X0I3FfCkkR-16">
          <mxGeometry relative="1" as="geometry">
            <mxPoint x="325" y="296" as="sourcePoint" />
            <mxPoint x="300" y="296" as="targetPoint" />
            <Array as="points">
              <mxPoint x="380" y="260" />
              <mxPoint x="240" y="260" />
            </Array>
          </mxGeometry>
        </mxCell>
        <mxCell id="f-r_1P2mJ3X0I3FfCkkR-41" value="없다면 수신 대기" style="edgeLabel;html=1;align=center;verticalAlign=middle;resizable=0;points=[];" vertex="1" connectable="0" parent="f-r_1P2mJ3X0I3FfCkkR-40">
          <mxGeometry x="-0.2889" y="4" relative="1" as="geometry">
            <mxPoint x="-26" y="-14" as="offset" />
          </mxGeometry>
        </mxCell>
        <mxCell id="f-r_1P2mJ3X0I3FfCkkR-38" value="유저 정보 존재" style="rhombus;whiteSpace=wrap;html=1;" vertex="1" parent="WIyWlLk6GJQsqaUBKTNV-1">
          <mxGeometry x="325" y="280" width="110" height="80" as="geometry" />
        </mxCell>
        <mxCell id="f-r_1P2mJ3X0I3FfCkkR-43" value="Attendance DB 데이터 수신" style="rounded=0;whiteSpace=wrap;html=1;" vertex="1" parent="WIyWlLk6GJQsqaUBKTNV-1">
          <mxGeometry x="470" y="190" width="120" height="60" as="geometry" />
        </mxCell>
      </root>
    </mxGraphModel>
  </diagram>
</mxfile>
